<?xml version="1.0" encoding="UTF-8"?>
<svg width="200" height="200" viewBox="0 0 200 200" version="1.1" xmlns="http://www.w3.org/2000/svg">
    <g fill="#0056D2">
        <path d="M100,0 C44.8,0 0,44.8 0,100 C0,155.2 44.8,200 100,200 C155.2,200 200,155.2 200,100 C200,44.8 155.2,0 100,0 Z M100,180 C55.8,180 20,144.2 20,100 C20,55.8 55.8,20 100,20 C144.2,20 180,55.8 180,100 C180,144.2 144.2,180 100,180 Z"/>
        <path d="M136.4,93.4 C136.4,77.8 123.6,65 108,65 C92.4,65 79.6,77.8 79.6,93.4 C79.6,109 92.4,121.8 108,121.8 C123.6,121.8 136.4,109 136.4,93.4 Z M63.6,93.4 C63.6,69 83.6,49 108,49 C132.4,49 152.4,69 152.4,93.4 C152.4,117.8 132.4,137.8 108,137.8 C83.6,137.8 63.6,117.8 63.6,93.4 Z"/>
    </g>
</svg> 